<svg width="192" height="194" xmlns="http://www.w3.org/2000/svg">
 <!-- Created with SVG Editor - http://github.com/mzalive/SVG Editor/ -->

 <g>
  <title>background</title>
  <rect fill="none" id="canvas_background" height="402" width="582" y="-1" x="-1"/>
 </g>
 <g>
  <title>Layer 1</title>
  <path stroke="#ffffff" id="svg_5" d="m96.792275,10.228205c-47.497039,0 -85.999996,38.502959 -85.999996,86c0,47.497041 38.502957,86 85.999996,86c47.497039,0 85.999996,-38.502959 85.999996,-86c0,-47.497041 -38.502957,-86 -85.999996,-86zm49.6213,79.893491c-8.585798,9.87574 -21.928993,13.142012 -33.639052,9.384615l-42.532543,48.911243c-4.532544,5.207101 -12.420118,5.739645 -17.627218,1.213018s-5.757396,-12.420118 -1.230769,-17.627219l42.591714,-48.964497c-5.284023,-11.035503 -3.887574,-24.639053 4.656805,-34.461538c8.088757,-9.319527 20.431952,-12.727811 31.644969,-9.905325l-16.295857,19.005917l5.331361,15.508876l16.106508,3.130178l16.337277,-19.053254c4.426035,10.733728 2.798816,23.502959 -5.343195,32.857988z" fill-opacity="null" stroke-width="12.5" fill="none"/>
 </g>
</svg>