<svg width="192" height="194" xmlns="http://www.w3.org/2000/svg">
 <!-- Created with SVG Editor - http://github.com/mzalive/SVG Editor/ -->

 <g>
  <title>background</title>
  <rect fill="none" id="canvas_background" height="402" width="582" y="-1" x="-1"/>
 </g>
 <g>
  <title>Layer 1</title>
  <path stroke="#ffffff" id="svg_4" d="m152.508669,129.79899c-11.459889,20.269187 -32.779728,33.936076 -57.286749,33.981654c-36.608156,-0.065111 -66.200702,-30.420059 -66.270541,-67.943774c0.069839,-37.543249 29.662384,-67.891685 66.270541,-67.963308c24.500672,0.045578 45.814162,13.705955 57.2804,33.975143l25.154616,14.87145l0.907903,0.533914c-8.323499,-39.392413 -42.449208,-68.913934 -83.342919,-68.926957c-47.128398,0.013022 -85.317448,39.177546 -85.323797,87.509758c0.012698,48.312679 38.201748,87.477202 85.323797,87.490225c40.90006,-0.013022 75.038467,-29.547566 83.342919,-68.94649l-0.895205,0.527403l-25.160965,14.890983zm27.389453,-33.96212l-45.39513,-26.884508l0,14.956095l-69.679937,0l0,23.837293l69.679937,0l0,14.956095l45.39513,-26.864975z" fill-opacity="null" stroke-width="12.5" fill="none"/>
 </g>
</svg>