<svg width="84" height="28" viewBox="0 0 84 28" fill="none" xmlns="http://www.w3.org/2000/svg">
<rect x="2" y="4" width="80" height="22" rx="4" fill="url(#paint0_linear)"/>
<path d="M6.5 4C6.5 3.17157 7.17157 2.5 8 2.5H20C20.8284 2.5 21.5 3.17157 21.5 4V6C21.5 6.82843 20.8284 7.5 20 7.5H8C7.17157 7.5 6.5 6.82843 6.5 6V4Z" fill="#E3000B" stroke="#0E0F11"/>
<path d="M34.5 4C34.5 3.17157 35.1716 2.5 36 2.5H48C48.8284 2.5 49.5 3.17157 49.5 4V6C49.5 6.82843 48.8284 7.5 48 7.5H36C35.1716 7.5 34.5 6.82843 34.5 6V4Z" fill="#E3000B" stroke="#0E0F11"/>
<path d="M62.5 4C62.5 3.17157 63.1716 2.5 64 2.5H76C76.8284 2.5 77.5 3.17157 77.5 4V6C77.5 6.82843 76.8284 7.5 76 7.5H64C63.1716 7.5 62.5 6.82843 62.5 6V4Z" fill="#E3000B" stroke="#0E0F11"/>
<defs>
<linearGradient id="paint0_linear" x1="42" y1="4" x2="42" y2="26" gradientUnits="userSpaceOnUse">
<stop stop-color="#A0171E"/>
<stop offset="1" stop-color="#E3000B"/>
</linearGradient>
</defs>
</svg>
