<svg width="192" height="194" xmlns="http://www.w3.org/2000/svg">
 <!-- Created with SVG Editor - http://github.com/mzalive/SVG Editor/ -->

 <g>
  <title>background</title>
  <rect x="-1" y="-1" width="194" height="196" id="canvas_background" fill="none"/>
 </g>
 <g>
  <title>Layer 1</title>
  <path fill="none" stroke-width="12.5" fill-opacity="null" d="m96.79228,10.22821c-47.49704,0 -86,38.50295 -86,86c0,47.49704 38.50296,86 86,86c47.49703,0 85.99999,-38.50296 85.99999,-86c0,-47.49705 -38.50296,-86 -85.99999,-86zm49.6213,79.89349c-8.5858,9.87574 -21.929,13.14201 -33.63906,9.38461l-42.53254,48.91124c-4.53254,5.2071 -12.42012,5.73965 -17.62722,1.21302s-5.75739,-12.42012 -1.23077,-17.62722l42.59172,-48.96449c-5.28403,-11.03551 -3.88758,-24.63906 4.6568,-34.46154c8.08876,-9.31953 20.43195,-12.72781 31.64497,-9.90533l-16.29586,19.00592l5.33137,15.50888l16.1065,3.13017l16.33728,-19.05325c4.42604,10.73373 2.79882,23.50296 -5.34319,32.85799z" id="svg_5" stroke="#00ff14"/>
 </g>
</svg>