<svg width="56" height="28" viewBox="0 0 56 28" fill="none" xmlns="http://www.w3.org/2000/svg">
<rect x="2" y="4" width="52" height="22" rx="4" fill="url(#paint0_linear)"/>
<path d="M6.5 4C6.5 3.17157 7.17157 2.5 8 2.5H20C20.8284 2.5 21.5 3.17157 21.5 4V6C21.5 6.82843 20.8284 7.5 20 7.5H8C7.17157 7.5 6.5 6.82843 6.5 6V4Z" fill="#414650" stroke="#767B83"/>
<path d="M34.5 4C34.5 3.17157 35.1716 2.5 36 2.5H48C48.8284 2.5 49.5 3.17157 49.5 4V6C49.5 6.82843 48.8284 7.5 48 7.5H36C35.1716 7.5 34.5 6.82843 34.5 6V4Z" fill="#414650" stroke="#767B83"/>
<defs>
<linearGradient id="paint0_linear" x1="28" y1="4" x2="28" y2="26" gradientUnits="userSpaceOnUse">
<stop stop-color="#34363B"/>
<stop offset="1" stop-color="#767B83"/>
</linearGradient>
</defs>
</svg>
