<svg width="192" height="194" xmlns="http://www.w3.org/2000/svg">
 <!-- Created with SVG Editor - http://github.com/mzalive/SVG Editor/ -->

 <g>
  <title>Layer 1</title>
  <ellipse stroke="#ffffff" ry="89.000001" rx="88.749999" id="svg_16" cy="97.250001" cx="95.999999" fill-opacity="null" stroke-width="12.5" fill="none"/>
  <path cy="58" cx="30" ry="38" rx="22" id="svg_18" d="m63.5,59.953125c5.5,-12 18.5,-18.5 28,-19c9.5,-0.5 20,1.5 28,9c8,7.5 10.5,18 11,24c0.5,6 -0.5,11 -6,25c1.5,0 -16,36 -31,59.5c-12,-24.5 -13,-26 -19,-38.5c-6,-12.5 -7.5,-17.5 -10,-25c-2.5,-7.5 -6.5,-23 -1,-35z" fill-opacity="null" stroke-width="12.5" stroke="#ffffff" fill="none"/>
  <ellipse stroke="#ffffff" ry="16" rx="16.5" id="svg_15" cy="76.25" cx="94.75" fill-opacity="null" stroke-width="12.5" fill="none"/>
 </g>
</svg>